<?xml version="1.0" encoding="UTF-8" standalone="no"?>
<!DOCTYPE svg PUBLIC "-//W3C//DTD SVG 1.1//EN"
 "http://www.w3.org/Graphics/SVG/1.1/DTD/svg11.dtd">
<!-- Generated by graphviz version 2.43.0 (0)
 -->
<!-- Title: %3 Pages: 1 -->
<svg width="903pt" height="530pt"
 viewBox="0.00 0.00 903.00 530.00" xmlns="http://www.w3.org/2000/svg" xmlns:xlink="http://www.w3.org/1999/xlink">
<g id="graph0" class="graph" transform="scale(1 1) rotate(0) translate(4 526)">
<title>%3</title>
<polygon fill="white" stroke="transparent" points="-4,4 -4,-526 899,-526 899,4 -4,4"/>
<!-- features_security_py -->
<g id="node1" class="node">
<title>features_security_py</title>
<polygon fill="lightblue" stroke="black" points="285.5,-198 282.5,-202 261.5,-202 258.5,-198 112.5,-198 112.5,-162 285.5,-162 285.5,-198"/>
<text text-anchor="start" x="120.5" y="-177.3" font-family="Times,serif" font-weight="bold" font-size="14.00">features/security.py</text>
</g>
<!-- features_security_py_verify_crc -->
<g id="node2" class="node">
<title>features_security_py_verify_crc</title>
<polygon fill="none" stroke="black" points="767,-360 556,-360 556,-324 773,-324 773,-354 767,-360"/>
<polyline fill="none" stroke="black" points="767,-360 767,-354 "/>
<polyline fill="none" stroke="black" points="773,-354 767,-354 "/>
<text text-anchor="middle" x="664.5" y="-339.5" font-family="Times,serif" font-size="10.00">verify_crc(payload_bytes, received_crc)</text>
</g>
<!-- features_security_py&#45;&gt;features_security_py_verify_crc -->
<g id="edge1" class="edge">
<title>features_security_py&#45;&gt;features_security_py_verify_crc</title>
<path fill="none" stroke="black" d="M223.69,-198.12C264.27,-228.09 350.75,-287.39 434,-315 469.33,-326.72 509.19,-333.49 545.67,-337.36"/>
<polygon fill="black" stroke="black" points="545.56,-340.86 555.86,-338.37 546.25,-333.9 545.56,-340.86"/>
</g>
<!-- features_security_py_verify_phdr_crc -->
<g id="node3" class="node">
<title>features_security_py_verify_phdr_crc</title>
<polygon fill="none" stroke="black" points="774,-306 549,-306 549,-270 780,-270 780,-300 774,-306"/>
<polyline fill="none" stroke="black" points="774,-306 774,-300 "/>
<polyline fill="none" stroke="black" points="780,-300 774,-300 "/>
<text text-anchor="middle" x="664.5" y="-285.5" font-family="Times,serif" font-size="10.00">verify_phdr_crc(phdr_bytes, received_crc)</text>
</g>
<!-- features_security_py&#45;&gt;features_security_py_verify_phdr_crc -->
<g id="edge2" class="edge">
<title>features_security_py&#45;&gt;features_security_py_verify_phdr_crc</title>
<path fill="none" stroke="black" d="M243.16,-198.11C289.51,-216.79 365.7,-245.35 434,-261 467.63,-268.7 504.57,-274.28 538.8,-278.29"/>
<polygon fill="black" stroke="black" points="538.52,-281.78 548.85,-279.43 539.31,-274.82 538.52,-281.78"/>
</g>
<!-- features_security_py_Physical_Layer_CRC_Checker -->
<g id="node4" class="node">
<title>features_security_py_Physical_Layer_CRC_Checker</title>
<polygon fill="none" stroke="black" points="853,-252 470,-252 470,-216 859,-216 859,-246 853,-252"/>
<polyline fill="none" stroke="black" points="853,-252 853,-246 "/>
<polyline fill="none" stroke="black" points="859,-246 853,-246 "/>
<text text-anchor="middle" x="664.5" y="-231.5" font-family="Times,serif" font-size="10.00">Physical_Layer_CRC_Checker(phdr, phdr_crc, phy_payload, payload_crc)</text>
</g>
<!-- features_security_py&#45;&gt;features_security_py_Physical_Layer_CRC_Checker -->
<g id="edge3" class="edge">
<title>features_security_py&#45;&gt;features_security_py_Physical_Layer_CRC_Checker</title>
<path fill="none" stroke="black" d="M285.55,-189.97C345.14,-196.91 426.51,-206.39 498.49,-214.78"/>
<polygon fill="black" stroke="black" points="498.25,-218.27 508.58,-215.95 499.06,-211.32 498.25,-218.27"/>
</g>
<!-- features_security_py_compute_verify_mic -->
<g id="node5" class="node">
<title>features_security_py_compute_verify_mic</title>
<polygon fill="none" stroke="black" points="873.5,-198 449.5,-198 449.5,-162 879.5,-162 879.5,-192 873.5,-198"/>
<polyline fill="none" stroke="black" points="873.5,-198 873.5,-192 "/>
<polyline fill="none" stroke="black" points="879.5,-192 873.5,-192 "/>
<text text-anchor="middle" x="664.5" y="-177.5" font-family="Times,serif" font-size="10.00">compute_verify_mic(nwkskey, devaddr, fcnt, direction, MHDR, MacPayload, MIC)</text>
</g>
<!-- features_security_py&#45;&gt;features_security_py_compute_verify_mic -->
<g id="edge4" class="edge">
<title>features_security_py&#45;&gt;features_security_py_compute_verify_mic</title>
<path fill="none" stroke="black" d="M285.55,-180C329.14,-180 384.39,-180 439.09,-180"/>
<polygon fill="black" stroke="black" points="439.29,-183.5 449.29,-180 439.29,-176.5 439.29,-183.5"/>
</g>
<!-- features_security_py_fcnt_to_little_endian_bytes -->
<g id="node6" class="node">
<title>features_security_py_fcnt_to_little_endian_bytes</title>
<polygon fill="none" stroke="black" points="765.5,-144 557.5,-144 557.5,-108 771.5,-108 771.5,-138 765.5,-144"/>
<polyline fill="none" stroke="black" points="765.5,-144 765.5,-138 "/>
<polyline fill="none" stroke="black" points="771.5,-138 765.5,-138 "/>
<text text-anchor="middle" x="664.5" y="-123.5" font-family="Times,serif" font-size="10.00">fcnt_to_little_endian_bytes(fcnt, Bytes)</text>
</g>
<!-- features_security_py&#45;&gt;features_security_py_fcnt_to_little_endian_bytes -->
<g id="edge5" class="edge">
<title>features_security_py&#45;&gt;features_security_py_fcnt_to_little_endian_bytes</title>
<path fill="none" stroke="black" d="M285.55,-170.03C359.05,-161.47 465.71,-149.04 546.99,-139.57"/>
<polygon fill="black" stroke="black" points="547.75,-143.01 557.28,-138.38 546.94,-136.06 547.75,-143.01"/>
</g>
<!-- features_security_py_decrypt_frm_payload -->
<g id="node7" class="node">
<title>features_security_py_decrypt_frm_payload</title>
<polygon fill="none" stroke="black" points="889,-90 434,-90 434,-54 895,-54 895,-84 889,-90"/>
<polyline fill="none" stroke="black" points="889,-90 889,-84 "/>
<polyline fill="none" stroke="black" points="895,-84 889,-84 "/>
<text text-anchor="middle" x="664.5" y="-69.5" font-family="Times,serif" font-size="10.00">decrypt_frm_payload(app_skey, nwkskey, dev_addr, fcnt, direction, frm_payload, Fport)</text>
</g>
<!-- features_security_py&#45;&gt;features_security_py_decrypt_frm_payload -->
<g id="edge6" class="edge">
<title>features_security_py&#45;&gt;features_security_py_decrypt_frm_payload</title>
<path fill="none" stroke="black" d="M243.16,-161.89C289.51,-143.21 365.7,-114.65 434,-99 445.53,-96.36 457.45,-93.97 469.52,-91.8"/>
<polygon fill="black" stroke="black" points="470.43,-95.2 479.69,-90.04 469.24,-88.3 470.43,-95.2"/>
</g>
<!-- features_security_py_encrypt_frm_payload -->
<g id="node8" class="node">
<title>features_security_py_encrypt_frm_payload</title>
<polygon fill="none" stroke="black" points="889,-36 434,-36 434,0 895,0 895,-30 889,-36"/>
<polyline fill="none" stroke="black" points="889,-36 889,-30 "/>
<polyline fill="none" stroke="black" points="895,-30 889,-30 "/>
<text text-anchor="middle" x="664.5" y="-15.5" font-family="Times,serif" font-size="10.00">encrypt_frm_payload(app_skey, nwkskey, dev_addr, fcnt, direction, frm_payload, Fport)</text>
</g>
<!-- features_security_py&#45;&gt;features_security_py_encrypt_frm_payload -->
<g id="edge7" class="edge">
<title>features_security_py&#45;&gt;features_security_py_encrypt_frm_payload</title>
<path fill="none" stroke="black" d="M223.69,-161.88C264.27,-131.91 350.75,-72.61 434,-45 441,-42.68 448.18,-40.55 455.48,-38.6"/>
<polygon fill="black" stroke="black" points="456.67,-41.91 465.5,-36.05 454.95,-35.13 456.67,-41.91"/>
</g>
<!-- processing_mac_cmd_processing_py -->
<g id="node9" class="node">
<title>processing_mac_cmd_processing_py</title>
<polygon fill="lightblue" stroke="black" points="346,-414 343,-418 322,-418 319,-414 52,-414 52,-378 346,-378 346,-414"/>
<text text-anchor="start" x="60" y="-393.3" font-family="Times,serif" font-weight="bold" font-size="14.00">processing/mac_cmd_processing.py</text>
</g>
<!-- processing_mac_cmd_processing_py_process_mac_commands -->
<g id="node10" class="node">
<title>processing_mac_cmd_processing_py_process_mac_commands</title>
<polygon fill="none" stroke="black" points="769,-414 554,-414 554,-378 775,-378 775,-408 769,-414"/>
<polyline fill="none" stroke="black" points="769,-414 769,-408 "/>
<polyline fill="none" stroke="black" points="775,-408 769,-408 "/>
<text text-anchor="middle" x="664.5" y="-393.5" font-family="Times,serif" font-size="10.00">process_mac_commands(parsed_frame)</text>
</g>
<!-- processing_mac_cmd_processing_py&#45;&gt;processing_mac_cmd_processing_py_process_mac_commands -->
<g id="edge8" class="edge">
<title>processing_mac_cmd_processing_py&#45;&gt;processing_mac_cmd_processing_py_process_mac_commands</title>
<path fill="none" stroke="black" d="M346.02,-396C409.61,-396 483.22,-396 543.54,-396"/>
<polygon fill="black" stroke="black" points="543.87,-399.5 553.87,-396 543.87,-392.5 543.87,-399.5"/>
</g>
<!-- features_mac_commands_mac_cmd_handler_py -->
<g id="node11" class="node">
<title>features_mac_commands_mac_cmd_handler_py</title>
<polygon fill="lightblue" stroke="black" points="388,-468 385,-472 364,-472 361,-468 10,-468 10,-432 388,-432 388,-468"/>
<text text-anchor="start" x="18" y="-447.3" font-family="Times,serif" font-weight="bold" font-size="14.00">features/mac_commands/mac_cmd_handler.py</text>
</g>
<!-- features_mac_commands_mac_cmd_handler_py_handle_mac_command_by_cid -->
<g id="node12" class="node">
<title>features_mac_commands_mac_cmd_handler_py_handle_mac_command_by_cid</title>
<polygon fill="none" stroke="black" points="818.5,-468 504.5,-468 504.5,-432 824.5,-432 824.5,-462 818.5,-468"/>
<polyline fill="none" stroke="black" points="818.5,-468 818.5,-462 "/>
<polyline fill="none" stroke="black" points="824.5,-462 818.5,-462 "/>
<text text-anchor="middle" x="664.5" y="-447.5" font-family="Times,serif" font-size="10.00">handle_mac_command_by_cid(commands, index, direction)</text>
</g>
<!-- features_mac_commands_mac_cmd_handler_py&#45;&gt;features_mac_commands_mac_cmd_handler_py_handle_mac_command_by_cid -->
<g id="edge9" class="edge">
<title>features_mac_commands_mac_cmd_handler_py&#45;&gt;features_mac_commands_mac_cmd_handler_py_handle_mac_command_by_cid</title>
<path fill="none" stroke="black" d="M388.19,-450C423.23,-450 459.64,-450 494.07,-450"/>
<polygon fill="black" stroke="black" points="494.21,-453.5 504.21,-450 494.21,-446.5 494.21,-453.5"/>
</g>
<!-- features_mac_commands_mac_cmd_extraction_py -->
<g id="node13" class="node">
<title>features_mac_commands_mac_cmd_extraction_py</title>
<polygon fill="lightblue" stroke="black" points="398,-522 395,-526 374,-526 371,-522 0,-522 0,-486 398,-486 398,-522"/>
<text text-anchor="start" x="8" y="-501.3" font-family="Times,serif" font-weight="bold" font-size="14.00">features/mac_commands/mac_cmd_extraction.py</text>
</g>
<!-- features_mac_commands_mac_cmd_extraction_py_extract_mac_commands -->
<g id="node14" class="node">
<title>features_mac_commands_mac_cmd_extraction_py_extract_mac_commands</title>
<polygon fill="none" stroke="black" points="758.5,-522 564.5,-522 564.5,-486 764.5,-486 764.5,-516 758.5,-522"/>
<polyline fill="none" stroke="black" points="758.5,-522 758.5,-516 "/>
<polyline fill="none" stroke="black" points="764.5,-516 758.5,-516 "/>
<text text-anchor="middle" x="664.5" y="-501.5" font-family="Times,serif" font-size="10.00">extract_mac_commands(mac_bytes)</text>
</g>
<!-- features_mac_commands_mac_cmd_extraction_py&#45;&gt;features_mac_commands_mac_cmd_extraction_py_extract_mac_commands -->
<g id="edge10" class="edge">
<title>features_mac_commands_mac_cmd_extraction_py&#45;&gt;features_mac_commands_mac_cmd_extraction_py_extract_mac_commands</title>
<path fill="none" stroke="black" d="M398.25,-504C451.73,-504 507.65,-504 554.28,-504"/>
<polygon fill="black" stroke="black" points="554.39,-507.5 564.39,-504 554.39,-500.5 554.39,-507.5"/>
</g>
</g>
</svg>
