<?xml version="1.0" encoding="UTF-8" standalone="no"?>
<!DOCTYPE svg PUBLIC "-//W3C//DTD SVG 1.1//EN"
 "http://www.w3.org/Graphics/SVG/1.1/DTD/svg11.dtd">
<!-- Generated by graphviz version 2.43.0 (0)
 -->
<!-- Title: %3 Pages: 1 -->
<svg width="1265pt" height="1610pt"
 viewBox="0.00 0.00 1265.00 1610.00" xmlns="http://www.w3.org/2000/svg" xmlns:xlink="http://www.w3.org/1999/xlink">
<g id="graph0" class="graph" transform="scale(1 1) rotate(0) translate(4 1606)">
<title>%3</title>
<polygon fill="white" stroke="transparent" points="-4,4 -4,-1606 1261,-1606 1261,4 -4,4"/>
<!-- LoRa&#45;Gateway_frame_parser_py -->
<g id="node1" class="node">
<title>LoRa&#45;Gateway_frame_parser_py</title>
<polygon fill="lightgrey" stroke="black" points="387,-36 384,-40 363,-40 360,-36 128,-36 128,0 387,0 387,-36"/>
<text text-anchor="start" x="136" y="-15.3" font-family="Times,serif" font-weight="bold" font-size="14.00">LoRa&#45;Gateway/frame_parser.py</text>
</g>
<!-- LoRa&#45;Gateway_frame_parser_py_parse_full_lorawan_frame -->
<g id="node2" class="node">
<title>LoRa&#45;Gateway_frame_parser_py_parse_full_lorawan_frame</title>
<polygon fill="none" stroke="black" points="1007,-36 795,-36 795,0 1013,0 1013,-30 1007,-36"/>
<polyline fill="none" stroke="black" points="1007,-36 1007,-30 "/>
<polyline fill="none" stroke="black" points="1013,-30 1007,-30 "/>
<text text-anchor="middle" x="904" y="-15.5" font-family="Times,serif" font-size="10.00">parse_full_lorawan_frame(Packet_Data)</text>
</g>
<!-- LoRa&#45;Gateway_frame_parser_py&#45;&gt;LoRa&#45;Gateway_frame_parser_py_parse_full_lorawan_frame -->
<g id="edge1" class="edge">
<title>LoRa&#45;Gateway_frame_parser_py&#45;&gt;LoRa&#45;Gateway_frame_parser_py_parse_full_lorawan_frame</title>
<path fill="none" stroke="black" d="M387.38,-18C503.35,-18 672.36,-18 784.9,-18"/>
<polygon fill="black" stroke="black" points="784.93,-21.5 794.93,-18 784.93,-14.5 784.93,-21.5"/>
</g>
<!-- LoRa&#45;Gateway_genrate_lora_test_packet_py -->
<g id="node3" class="node">
<title>LoRa&#45;Gateway_genrate_lora_test_packet_py</title>
<polygon fill="lightgrey" stroke="black" points="433.5,-90 430.5,-94 409.5,-94 406.5,-90 81.5,-90 81.5,-54 433.5,-54 433.5,-90"/>
<text text-anchor="start" x="89.5" y="-69.3" font-family="Times,serif" font-weight="bold" font-size="14.00">LoRa&#45;Gateway/genrate_lora_test_packet.py</text>
</g>
<!-- LoRa&#45;Gateway_genrate_lora_test_packet_py_generate_lorawan_uplink_packet -->
<g id="node4" class="node">
<title>LoRa&#45;Gateway_genrate_lora_test_packet_py_generate_lorawan_uplink_packet</title>
<polygon fill="none" stroke="black" points="1251,-90 551,-90 551,-54 1257,-54 1257,-84 1251,-90"/>
<polyline fill="none" stroke="black" points="1251,-90 1251,-84 "/>
<polyline fill="none" stroke="black" points="1257,-84 1251,-84 "/>
<text text-anchor="middle" x="904" y="-69.5" font-family="Times,serif" font-size="10.00">generate_lorawan_uplink_packet(dev_addr_hex, fcnt_hex, fport_hex, frmpayload_hex, nwk_skey_hex, mac_commands_hex, confirmed)</text>
</g>
<!-- LoRa&#45;Gateway_genrate_lora_test_packet_py&#45;&gt;LoRa&#45;Gateway_genrate_lora_test_packet_py_generate_lorawan_uplink_packet -->
<g id="edge2" class="edge">
<title>LoRa&#45;Gateway_genrate_lora_test_packet_py&#45;&gt;LoRa&#45;Gateway_genrate_lora_test_packet_py_generate_lorawan_uplink_packet</title>
<path fill="none" stroke="black" d="M433.76,-72C467.24,-72 503.41,-72 540.29,-72"/>
<polygon fill="black" stroke="black" points="540.71,-75.5 550.71,-72 540.71,-68.5 540.71,-75.5"/>
</g>
<!-- LoRa&#45;Gateway_helper_main_py -->
<g id="node5" class="node">
<title>LoRa&#45;Gateway_helper_main_py</title>
<polygon fill="lightgrey" stroke="black" points="384.5,-144 381.5,-148 360.5,-148 357.5,-144 130.5,-144 130.5,-108 384.5,-108 384.5,-144"/>
<text text-anchor="start" x="138.5" y="-123.3" font-family="Times,serif" font-weight="bold" font-size="14.00">LoRa&#45;Gateway/helper_main.py</text>
</g>
<!-- LoRa&#45;Gateway_helper_main_py_handle_lorawan_packet -->
<g id="node6" class="node">
<title>LoRa&#45;Gateway_helper_main_py_handle_lorawan_packet</title>
<polygon fill="none" stroke="black" points="1001,-144 801,-144 801,-108 1007,-108 1007,-138 1001,-144"/>
<polyline fill="none" stroke="black" points="1001,-144 1001,-138 "/>
<polyline fill="none" stroke="black" points="1007,-138 1001,-138 "/>
<text text-anchor="middle" x="904" y="-123.5" font-family="Times,serif" font-size="10.00">handle_lorawan_packet(packet_data)</text>
</g>
<!-- LoRa&#45;Gateway_helper_main_py&#45;&gt;LoRa&#45;Gateway_helper_main_py_handle_lorawan_packet -->
<g id="edge3" class="edge">
<title>LoRa&#45;Gateway_helper_main_py&#45;&gt;LoRa&#45;Gateway_helper_main_py_handle_lorawan_packet</title>
<path fill="none" stroke="black" d="M384.68,-126C502.78,-126 677.56,-126 790.88,-126"/>
<polygon fill="black" stroke="black" points="790.97,-129.5 800.97,-126 790.97,-122.5 790.97,-129.5"/>
</g>
<!-- LoRa&#45;Gateway_main_py -->
<g id="node7" class="node">
<title>LoRa&#45;Gateway_main_py</title>
<polygon fill="lightgrey" stroke="black" points="355.5,-198 352.5,-202 331.5,-202 328.5,-198 159.5,-198 159.5,-162 355.5,-162 355.5,-198"/>
<text text-anchor="start" x="167.5" y="-177.3" font-family="Times,serif" font-weight="bold" font-size="14.00">LoRa&#45;Gateway/main.py</text>
</g>
<!-- LoRa&#45;Gateway_main_py_main -->
<g id="node8" class="node">
<title>LoRa&#45;Gateway_main_py_main</title>
<polygon fill="none" stroke="black" points="925,-198 877,-198 877,-162 931,-162 931,-192 925,-198"/>
<polyline fill="none" stroke="black" points="925,-198 925,-192 "/>
<polyline fill="none" stroke="black" points="931,-192 925,-192 "/>
<text text-anchor="middle" x="904" y="-177.5" font-family="Times,serif" font-size="10.00">main()</text>
</g>
<!-- LoRa&#45;Gateway_main_py&#45;&gt;LoRa&#45;Gateway_main_py_main -->
<g id="edge4" class="edge">
<title>LoRa&#45;Gateway_main_py&#45;&gt;LoRa&#45;Gateway_main_py_main</title>
<path fill="none" stroke="black" d="M355.69,-180C501.26,-180 769.24,-180 866.51,-180"/>
<polygon fill="black" stroke="black" points="866.71,-183.5 876.71,-180 866.71,-176.5 866.71,-183.5"/>
</g>
<!-- LoRa&#45;Gateway_Notes_py -->
<g id="node9" class="node">
<title>LoRa&#45;Gateway_Notes_py</title>
<polygon fill="lightgrey" stroke="black" points="358.5,-252 355.5,-256 334.5,-256 331.5,-252 156.5,-252 156.5,-216 358.5,-216 358.5,-252"/>
<text text-anchor="start" x="164.5" y="-231.3" font-family="Times,serif" font-weight="bold" font-size="14.00">LoRa&#45;Gateway/Notes.py</text>
</g>
<!-- LoRa&#45;Gateway_config_settings_py -->
<g id="node10" class="node">
<title>LoRa&#45;Gateway_config_settings_py</title>
<polygon fill="lightgrey" stroke="black" points="394.5,-306 391.5,-310 370.5,-310 367.5,-306 120.5,-306 120.5,-270 394.5,-270 394.5,-306"/>
<text text-anchor="start" x="128.5" y="-285.3" font-family="Times,serif" font-weight="bold" font-size="14.00">LoRa&#45;Gateway/config/settings.py</text>
</g>
<!-- LoRa&#45;Gateway_core_receiver_py -->
<g id="node11" class="node">
<title>LoRa&#45;Gateway_core_receiver_py</title>
<polygon fill="lightgrey" stroke="black" points="386,-360 383,-364 362,-364 359,-360 129,-360 129,-324 386,-324 386,-360"/>
<text text-anchor="start" x="137" y="-339.3" font-family="Times,serif" font-weight="bold" font-size="14.00">LoRa&#45;Gateway/core/receiver.py</text>
</g>
<!-- LoRa&#45;Gateway_core_transmitter_py -->
<g id="node12" class="node">
<title>LoRa&#45;Gateway_core_transmitter_py</title>
<polygon fill="lightgrey" stroke="black" points="400.5,-414 397.5,-418 376.5,-418 373.5,-414 114.5,-414 114.5,-378 400.5,-378 400.5,-414"/>
<text text-anchor="start" x="122.5" y="-393.3" font-family="Times,serif" font-weight="bold" font-size="14.00">LoRa&#45;Gateway/core/transmitter.py</text>
</g>
<!-- LoRa&#45;Gateway_core_utils_py -->
<g id="node13" class="node">
<title>LoRa&#45;Gateway_core_utils_py</title>
<polygon fill="lightgrey" stroke="black" points="373,-468 370,-472 349,-472 346,-468 142,-468 142,-432 373,-432 373,-468"/>
<text text-anchor="start" x="150" y="-447.3" font-family="Times,serif" font-weight="bold" font-size="14.00">LoRa&#45;Gateway/core/utils.py</text>
</g>
<!-- LoRa&#45;Gateway_features_adr_py -->
<g id="node14" class="node">
<title>LoRa&#45;Gateway_features_adr_py</title>
<polygon fill="lightgrey" stroke="black" points="383.5,-522 380.5,-526 359.5,-526 356.5,-522 131.5,-522 131.5,-486 383.5,-486 383.5,-522"/>
<text text-anchor="start" x="139.5" y="-501.3" font-family="Times,serif" font-weight="bold" font-size="14.00">LoRa&#45;Gateway/features/adr.py</text>
</g>
<!-- LoRa&#45;Gateway_features_duty_cycle_py -->
<g id="node15" class="node">
<title>LoRa&#45;Gateway_features_duty_cycle_py</title>
<polygon fill="lightgrey" stroke="black" points="411.5,-576 408.5,-580 387.5,-580 384.5,-576 103.5,-576 103.5,-540 411.5,-540 411.5,-576"/>
<text text-anchor="start" x="111.5" y="-555.3" font-family="Times,serif" font-weight="bold" font-size="14.00">LoRa&#45;Gateway/features/duty_cycle.py</text>
</g>
<!-- LoRa&#45;Gateway_features_MType_py -->
<g id="node16" class="node">
<title>LoRa&#45;Gateway_features_MType_py</title>
<polygon fill="lightgrey" stroke="black" points="397,-630 394,-634 373,-634 370,-630 118,-630 118,-594 397,-594 397,-630"/>
<text text-anchor="start" x="126" y="-609.3" font-family="Times,serif" font-weight="bold" font-size="14.00">LoRa&#45;Gateway/features/MType.py</text>
</g>
<!-- LoRa&#45;Gateway_features_MType_py_Mac_Commands_fetch -->
<g id="node17" class="node">
<title>LoRa&#45;Gateway_features_MType_py_Mac_Commands_fetch</title>
<polygon fill="none" stroke="black" points="984.5,-630 817.5,-630 817.5,-594 990.5,-594 990.5,-624 984.5,-630"/>
<polyline fill="none" stroke="black" points="984.5,-630 984.5,-624 "/>
<polyline fill="none" stroke="black" points="990.5,-624 984.5,-624 "/>
<text text-anchor="middle" x="904" y="-609.5" font-family="Times,serif" font-size="10.00">Mac_Commands_fetch(Mtype)</text>
</g>
<!-- LoRa&#45;Gateway_features_MType_py&#45;&gt;LoRa&#45;Gateway_features_MType_py_Mac_Commands_fetch -->
<g id="edge5" class="edge">
<title>LoRa&#45;Gateway_features_MType_py&#45;&gt;LoRa&#45;Gateway_features_MType_py_Mac_Commands_fetch</title>
<path fill="none" stroke="black" d="M397.16,-612C520.81,-612 698.57,-612 807.11,-612"/>
<polygon fill="black" stroke="black" points="807.4,-615.5 817.4,-612 807.4,-608.5 807.4,-615.5"/>
</g>
<!-- LoRa&#45;Gateway_features_security_py -->
<g id="node18" class="node">
<title>LoRa&#45;Gateway_features_security_py</title>
<polygon fill="lightgrey" stroke="black" points="402.5,-846 399.5,-850 378.5,-850 375.5,-846 112.5,-846 112.5,-810 402.5,-810 402.5,-846"/>
<text text-anchor="start" x="120.5" y="-825.3" font-family="Times,serif" font-weight="bold" font-size="14.00">LoRa&#45;Gateway/features/security.py</text>
</g>
<!-- LoRa&#45;Gateway_features_security_py_verify_crc -->
<g id="node19" class="node">
<title>LoRa&#45;Gateway_features_security_py_verify_crc</title>
<polygon fill="none" stroke="black" points="1006.5,-1008 795.5,-1008 795.5,-972 1012.5,-972 1012.5,-1002 1006.5,-1008"/>
<polyline fill="none" stroke="black" points="1006.5,-1008 1006.5,-1002 "/>
<polyline fill="none" stroke="black" points="1012.5,-1002 1006.5,-1002 "/>
<text text-anchor="middle" x="904" y="-987.5" font-family="Times,serif" font-size="10.00">verify_crc(payload_bytes, received_crc)</text>
</g>
<!-- LoRa&#45;Gateway_features_security_py&#45;&gt;LoRa&#45;Gateway_features_security_py_verify_crc -->
<g id="edge6" class="edge">
<title>LoRa&#45;Gateway_features_security_py&#45;&gt;LoRa&#45;Gateway_features_security_py_verify_crc</title>
<path fill="none" stroke="black" d="M370.34,-846.07C418.38,-857.98 473,-877.44 515,-909 538.06,-926.33 526.11,-948.43 551,-963 621.09,-1004.04 712.94,-1009.82 785.24,-1005.86"/>
<polygon fill="black" stroke="black" points="785.54,-1009.35 795.3,-1005.24 785.11,-1002.36 785.54,-1009.35"/>
</g>
<!-- LoRa&#45;Gateway_features_security_py_verify_phdr_crc -->
<g id="node20" class="node">
<title>LoRa&#45;Gateway_features_security_py_verify_phdr_crc</title>
<polygon fill="none" stroke="black" points="1013.5,-954 788.5,-954 788.5,-918 1019.5,-918 1019.5,-948 1013.5,-954"/>
<polyline fill="none" stroke="black" points="1013.5,-954 1013.5,-948 "/>
<polyline fill="none" stroke="black" points="1019.5,-948 1013.5,-948 "/>
<text text-anchor="middle" x="904" y="-933.5" font-family="Times,serif" font-size="10.00">verify_phdr_crc(phdr_bytes, received_crc)</text>
</g>
<!-- LoRa&#45;Gateway_features_security_py&#45;&gt;LoRa&#45;Gateway_features_security_py_verify_phdr_crc -->
<g id="edge7" class="edge">
<title>LoRa&#45;Gateway_features_security_py&#45;&gt;LoRa&#45;Gateway_features_security_py_verify_phdr_crc</title>
<path fill="none" stroke="black" d="M311.43,-846C369.48,-864.96 465.75,-894.07 551,-909 625.65,-922.07 710.31,-928.82 777.89,-932.29"/>
<polygon fill="black" stroke="black" points="778,-935.8 788.16,-932.8 778.35,-928.81 778,-935.8"/>
</g>
<!-- LoRa&#45;Gateway_features_security_py_Physical_Layer_CRC_Checker -->
<g id="node21" class="node">
<title>LoRa&#45;Gateway_features_security_py_Physical_Layer_CRC_Checker</title>
<polygon fill="none" stroke="black" points="1092.5,-900 709.5,-900 709.5,-864 1098.5,-864 1098.5,-894 1092.5,-900"/>
<polyline fill="none" stroke="black" points="1092.5,-900 1092.5,-894 "/>
<polyline fill="none" stroke="black" points="1098.5,-894 1092.5,-894 "/>
<text text-anchor="middle" x="904" y="-879.5" font-family="Times,serif" font-size="10.00">Physical_Layer_CRC_Checker(phdr, phdr_crc, phy_payload, payload_crc)</text>
</g>
<!-- LoRa&#45;Gateway_features_security_py&#45;&gt;LoRa&#45;Gateway_features_security_py_Physical_Layer_CRC_Checker -->
<g id="edge8" class="edge">
<title>LoRa&#45;Gateway_features_security_py&#45;&gt;LoRa&#45;Gateway_features_security_py_Physical_Layer_CRC_Checker</title>
<path fill="none" stroke="black" d="M402.77,-841.76C450,-846.15 502.72,-850.92 551,-855 598.99,-859.06 650.69,-863.17 699.3,-866.91"/>
<polygon fill="black" stroke="black" points="699.06,-870.41 709.3,-867.68 699.6,-863.43 699.06,-870.41"/>
</g>
<!-- LoRa&#45;Gateway_features_security_py_compute_verify_mic -->
<g id="node22" class="node">
<title>LoRa&#45;Gateway_features_security_py_compute_verify_mic</title>
<polygon fill="none" stroke="black" points="1113,-846 689,-846 689,-810 1119,-810 1119,-840 1113,-846"/>
<polyline fill="none" stroke="black" points="1113,-846 1113,-840 "/>
<polyline fill="none" stroke="black" points="1119,-840 1113,-840 "/>
<text text-anchor="middle" x="904" y="-825.5" font-family="Times,serif" font-size="10.00">compute_verify_mic(nwkskey, devaddr, fcnt, direction, MHDR, MacPayload, MIC)</text>
</g>
<!-- LoRa&#45;Gateway_features_security_py&#45;&gt;LoRa&#45;Gateway_features_security_py_compute_verify_mic -->
<g id="edge9" class="edge">
<title>LoRa&#45;Gateway_features_security_py&#45;&gt;LoRa&#45;Gateway_features_security_py_compute_verify_mic</title>
<path fill="none" stroke="black" d="M402.74,-828C483.93,-828 587.08,-828 678.6,-828"/>
<polygon fill="black" stroke="black" points="678.84,-831.5 688.84,-828 678.84,-824.5 678.84,-831.5"/>
</g>
<!-- LoRa&#45;Gateway_features_security_py_fcnt_to_little_endian_bytes -->
<g id="node23" class="node">
<title>LoRa&#45;Gateway_features_security_py_fcnt_to_little_endian_bytes</title>
<polygon fill="none" stroke="black" points="1005,-792 797,-792 797,-756 1011,-756 1011,-786 1005,-792"/>
<polyline fill="none" stroke="black" points="1005,-792 1005,-786 "/>
<polyline fill="none" stroke="black" points="1011,-786 1005,-786 "/>
<text text-anchor="middle" x="904" y="-771.5" font-family="Times,serif" font-size="10.00">fcnt_to_little_endian_bytes(fcnt, Bytes)</text>
</g>
<!-- LoRa&#45;Gateway_features_security_py&#45;&gt;LoRa&#45;Gateway_features_security_py_fcnt_to_little_endian_bytes -->
<g id="edge10" class="edge">
<title>LoRa&#45;Gateway_features_security_py&#45;&gt;LoRa&#45;Gateway_features_security_py_fcnt_to_little_endian_bytes</title>
<path fill="none" stroke="black" d="M402.77,-814.24C450,-809.85 502.72,-805.08 551,-801 629.58,-794.36 718.1,-787.57 786.71,-782.47"/>
<polygon fill="black" stroke="black" points="786.97,-785.96 796.68,-781.72 786.45,-778.98 786.97,-785.96"/>
</g>
<!-- LoRa&#45;Gateway_features_security_py_decrypt_frm_payload -->
<g id="node24" class="node">
<title>LoRa&#45;Gateway_features_security_py_decrypt_frm_payload</title>
<polygon fill="none" stroke="black" points="1128.5,-738 673.5,-738 673.5,-702 1134.5,-702 1134.5,-732 1128.5,-738"/>
<polyline fill="none" stroke="black" points="1128.5,-738 1128.5,-732 "/>
<polyline fill="none" stroke="black" points="1134.5,-732 1128.5,-732 "/>
<text text-anchor="middle" x="904" y="-717.5" font-family="Times,serif" font-size="10.00">decrypt_frm_payload(app_skey, nwkskey, dev_addr, fcnt, direction, frm_payload, Fport)</text>
</g>
<!-- LoRa&#45;Gateway_features_security_py&#45;&gt;LoRa&#45;Gateway_features_security_py_decrypt_frm_payload -->
<g id="edge11" class="edge">
<title>LoRa&#45;Gateway_features_security_py&#45;&gt;LoRa&#45;Gateway_features_security_py_decrypt_frm_payload</title>
<path fill="none" stroke="black" d="M311.43,-810C369.48,-791.04 465.75,-761.93 551,-747 587.02,-740.69 625.38,-735.86 663.02,-732.15"/>
<polygon fill="black" stroke="black" points="663.47,-735.63 673.09,-731.19 662.8,-728.66 663.47,-735.63"/>
</g>
<!-- LoRa&#45;Gateway_features_security_py_encrypt_frm_payload -->
<g id="node25" class="node">
<title>LoRa&#45;Gateway_features_security_py_encrypt_frm_payload</title>
<polygon fill="none" stroke="black" points="1128.5,-684 673.5,-684 673.5,-648 1134.5,-648 1134.5,-678 1128.5,-684"/>
<polyline fill="none" stroke="black" points="1128.5,-684 1128.5,-678 "/>
<polyline fill="none" stroke="black" points="1134.5,-678 1128.5,-678 "/>
<text text-anchor="middle" x="904" y="-663.5" font-family="Times,serif" font-size="10.00">encrypt_frm_payload(app_skey, nwkskey, dev_addr, fcnt, direction, frm_payload, Fport)</text>
</g>
<!-- LoRa&#45;Gateway_features_security_py&#45;&gt;LoRa&#45;Gateway_features_security_py_encrypt_frm_payload -->
<g id="edge12" class="edge">
<title>LoRa&#45;Gateway_features_security_py&#45;&gt;LoRa&#45;Gateway_features_security_py_encrypt_frm_payload</title>
<path fill="none" stroke="black" d="M288.32,-809.85C339.78,-779.55 449.51,-719.4 551,-693 586.8,-683.69 625.29,-677.27 663.2,-672.89"/>
<polygon fill="black" stroke="black" points="663.8,-676.34 673.35,-671.76 663.03,-669.39 663.8,-676.34"/>
</g>
<!-- LoRa&#45;Gateway_features___init___py -->
<g id="node26" class="node">
<title>LoRa&#45;Gateway_features___init___py</title>
<polygon fill="lightgrey" stroke="black" points="398.5,-954 395.5,-958 374.5,-958 371.5,-954 116.5,-954 116.5,-918 398.5,-918 398.5,-954"/>
<text text-anchor="start" x="124.5" y="-933.3" font-family="Times,serif" font-weight="bold" font-size="14.00">LoRa&#45;Gateway/features/__init__.py</text>
</g>
<!-- LoRa&#45;Gateway_features_mac_commands_mac_cmd_extraction_py -->
<g id="node27" class="node">
<title>LoRa&#45;Gateway_features_mac_commands_mac_cmd_extraction_py</title>
<polygon fill="lightgrey" stroke="black" points="515,-1062 512,-1066 491,-1066 488,-1062 0,-1062 0,-1026 515,-1026 515,-1062"/>
<text text-anchor="start" x="8" y="-1041.3" font-family="Times,serif" font-weight="bold" font-size="14.00">LoRa&#45;Gateway/features/mac_commands/mac_cmd_extraction.py</text>
</g>
<!-- LoRa&#45;Gateway_features_mac_commands_mac_cmd_extraction_py_extract_mac_commands -->
<g id="node28" class="node">
<title>LoRa&#45;Gateway_features_mac_commands_mac_cmd_extraction_py_extract_mac_commands</title>
<polygon fill="none" stroke="black" points="998,-1062 804,-1062 804,-1026 1004,-1026 1004,-1056 998,-1062"/>
<polyline fill="none" stroke="black" points="998,-1062 998,-1056 "/>
<polyline fill="none" stroke="black" points="1004,-1056 998,-1056 "/>
<text text-anchor="middle" x="904" y="-1041.5" font-family="Times,serif" font-size="10.00">extract_mac_commands(mac_bytes)</text>
</g>
<!-- LoRa&#45;Gateway_features_mac_commands_mac_cmd_extraction_py&#45;&gt;LoRa&#45;Gateway_features_mac_commands_mac_cmd_extraction_py_extract_mac_commands -->
<g id="edge13" class="edge">
<title>LoRa&#45;Gateway_features_mac_commands_mac_cmd_extraction_py&#45;&gt;LoRa&#45;Gateway_features_mac_commands_mac_cmd_extraction_py_extract_mac_commands</title>
<path fill="none" stroke="black" d="M515.08,-1044C612,-1044 717.2,-1044 793.56,-1044"/>
<polygon fill="black" stroke="black" points="793.67,-1047.5 803.67,-1044 793.67,-1040.5 793.67,-1047.5"/>
</g>
<!-- LoRa&#45;Gateway_features_mac_commands_mac_cmd_handler_py -->
<g id="node29" class="node">
<title>LoRa&#45;Gateway_features_mac_commands_mac_cmd_handler_py</title>
<polygon fill="lightgrey" stroke="black" points="505,-1116 502,-1120 481,-1120 478,-1116 10,-1116 10,-1080 505,-1080 505,-1116"/>
<text text-anchor="start" x="18" y="-1095.3" font-family="Times,serif" font-weight="bold" font-size="14.00">LoRa&#45;Gateway/features/mac_commands/mac_cmd_handler.py</text>
</g>
<!-- LoRa&#45;Gateway_features_mac_commands_mac_cmd_handler_py_handle_mac_command_by_cid -->
<g id="node30" class="node">
<title>LoRa&#45;Gateway_features_mac_commands_mac_cmd_handler_py_handle_mac_command_by_cid</title>
<polygon fill="none" stroke="black" points="1058,-1116 744,-1116 744,-1080 1064,-1080 1064,-1110 1058,-1116"/>
<polyline fill="none" stroke="black" points="1058,-1116 1058,-1110 "/>
<polyline fill="none" stroke="black" points="1064,-1110 1058,-1110 "/>
<text text-anchor="middle" x="904" y="-1095.5" font-family="Times,serif" font-size="10.00">handle_mac_command_by_cid(commands, index, direction)</text>
</g>
<!-- LoRa&#45;Gateway_features_mac_commands_mac_cmd_handler_py&#45;&gt;LoRa&#45;Gateway_features_mac_commands_mac_cmd_handler_py_handle_mac_command_by_cid -->
<g id="edge14" class="edge">
<title>LoRa&#45;Gateway_features_mac_commands_mac_cmd_handler_py&#45;&gt;LoRa&#45;Gateway_features_mac_commands_mac_cmd_handler_py_handle_mac_command_by_cid</title>
<path fill="none" stroke="black" d="M505.38,-1098C581.54,-1098 663.66,-1098 733.39,-1098"/>
<polygon fill="black" stroke="black" points="733.58,-1101.5 743.58,-1098 733.58,-1094.5 733.58,-1101.5"/>
</g>
<!-- LoRa&#45;Gateway_features_mac_commands___init___py -->
<g id="node31" class="node">
<title>LoRa&#45;Gateway_features_mac_commands___init___py</title>
<polygon fill="lightgrey" stroke="black" points="463,-1170 460,-1174 439,-1174 436,-1170 52,-1170 52,-1134 463,-1134 463,-1170"/>
<text text-anchor="start" x="60" y="-1149.3" font-family="Times,serif" font-weight="bold" font-size="14.00">LoRa&#45;Gateway/features/mac_commands/__init__.py</text>
</g>
<!-- LoRa&#45;Gateway_processing_mac_cmd_processing_py -->
<g id="node32" class="node">
<title>LoRa&#45;Gateway_processing_mac_cmd_processing_py</title>
<polygon fill="lightgrey" stroke="black" points="463,-1224 460,-1228 439,-1228 436,-1224 52,-1224 52,-1188 463,-1188 463,-1224"/>
<text text-anchor="start" x="60" y="-1203.3" font-family="Times,serif" font-weight="bold" font-size="14.00">LoRa&#45;Gateway/processing/mac_cmd_processing.py</text>
</g>
<!-- LoRa&#45;Gateway_processing_mac_cmd_processing_py_process_mac_commands -->
<g id="node33" class="node">
<title>LoRa&#45;Gateway_processing_mac_cmd_processing_py_process_mac_commands</title>
<polygon fill="none" stroke="black" points="1008.5,-1224 793.5,-1224 793.5,-1188 1014.5,-1188 1014.5,-1218 1008.5,-1224"/>
<polyline fill="none" stroke="black" points="1008.5,-1224 1008.5,-1218 "/>
<polyline fill="none" stroke="black" points="1014.5,-1218 1008.5,-1218 "/>
<text text-anchor="middle" x="904" y="-1203.5" font-family="Times,serif" font-size="10.00">process_mac_commands(parsed_frame)</text>
</g>
<!-- LoRa&#45;Gateway_processing_mac_cmd_processing_py&#45;&gt;LoRa&#45;Gateway_processing_mac_cmd_processing_py_process_mac_commands -->
<g id="edge15" class="edge">
<title>LoRa&#45;Gateway_processing_mac_cmd_processing_py&#45;&gt;LoRa&#45;Gateway_processing_mac_cmd_processing_py_process_mac_commands</title>
<path fill="none" stroke="black" d="M463.31,-1206C568.72,-1206 693.55,-1206 783.22,-1206"/>
<polygon fill="black" stroke="black" points="783.43,-1209.5 793.43,-1206 783.43,-1202.5 783.43,-1209.5"/>
</g>
<!-- LoRa&#45;Gateway_processing_write_device_yaml_py -->
<g id="node34" class="node">
<title>LoRa&#45;Gateway_processing_write_device_yaml_py</title>
<polygon fill="lightgrey" stroke="black" points="451.5,-1278 448.5,-1282 427.5,-1282 424.5,-1278 63.5,-1278 63.5,-1242 451.5,-1242 451.5,-1278"/>
<text text-anchor="start" x="71.5" y="-1257.3" font-family="Times,serif" font-weight="bold" font-size="14.00">LoRa&#45;Gateway/processing/write_device_yaml.py</text>
</g>
<!-- LoRa&#45;Gateway_processing_write_device_yaml_py_generate_device_yaml -->
<g id="node35" class="node">
<title>LoRa&#45;Gateway_processing_write_device_yaml_py_generate_device_yaml</title>
<polygon fill="none" stroke="black" points="1035,-1278 767,-1278 767,-1242 1041,-1242 1041,-1272 1035,-1278"/>
<polyline fill="none" stroke="black" points="1035,-1278 1035,-1272 "/>
<polyline fill="none" stroke="black" points="1041,-1272 1035,-1272 "/>
<text text-anchor="middle" x="904" y="-1257.5" font-family="Times,serif" font-size="10.00">generate_device_yaml(mac_commands, dev_addr)</text>
</g>
<!-- LoRa&#45;Gateway_processing_write_device_yaml_py&#45;&gt;LoRa&#45;Gateway_processing_write_device_yaml_py_generate_device_yaml -->
<g id="edge16" class="edge">
<title>LoRa&#45;Gateway_processing_write_device_yaml_py&#45;&gt;LoRa&#45;Gateway_processing_write_device_yaml_py_generate_device_yaml</title>
<path fill="none" stroke="black" d="M451.87,-1260C549.71,-1260 666.52,-1260 756.76,-1260"/>
<polygon fill="black" stroke="black" points="756.79,-1263.5 766.79,-1260 756.79,-1256.5 756.79,-1263.5"/>
</g>
<!-- LoRa&#45;Gateway_processing___init___py -->
<g id="node36" class="node">
<title>LoRa&#45;Gateway_processing___init___py</title>
<polygon fill="lightgrey" stroke="black" points="408.5,-1332 405.5,-1336 384.5,-1336 381.5,-1332 106.5,-1332 106.5,-1296 408.5,-1296 408.5,-1332"/>
<text text-anchor="start" x="114.5" y="-1311.3" font-family="Times,serif" font-weight="bold" font-size="14.00">LoRa&#45;Gateway/processing/__init__.py</text>
</g>
<!-- LoRa&#45;Gateway_processing___pycache_____init___py -->
<g id="node37" class="node">
<title>LoRa&#45;Gateway_processing___pycache_____init___py</title>
<polygon fill="lightgrey" stroke="black" points="456,-1386 453,-1390 432,-1390 429,-1386 59,-1386 59,-1350 456,-1350 456,-1386"/>
<text text-anchor="start" x="67" y="-1365.3" font-family="Times,serif" font-weight="bold" font-size="14.00">LoRa&#45;Gateway/processing/__pycache__/__init__.py</text>
</g>
<!-- LoRa&#45;Gateway_protocol_layers_application_layer_py -->
<g id="node38" class="node">
<title>LoRa&#45;Gateway_protocol_layers_application_layer_py</title>
<polygon fill="lightgrey" stroke="black" points="463.5,-1440 460.5,-1444 439.5,-1444 436.5,-1440 51.5,-1440 51.5,-1404 463.5,-1404 463.5,-1440"/>
<text text-anchor="start" x="59.5" y="-1419.3" font-family="Times,serif" font-weight="bold" font-size="14.00">LoRa&#45;Gateway/protocol_layers/application_layer.py</text>
</g>
<!-- LoRa&#45;Gateway_protocol_layers_application_layer_py_parse_app_layer -->
<g id="node39" class="node">
<title>LoRa&#45;Gateway_protocol_layers_application_layer_py_parse_app_layer</title>
<polygon fill="none" stroke="black" points="984.5,-1440 817.5,-1440 817.5,-1404 990.5,-1404 990.5,-1434 984.5,-1440"/>
<polyline fill="none" stroke="black" points="984.5,-1440 984.5,-1434 "/>
<polyline fill="none" stroke="black" points="990.5,-1434 984.5,-1434 "/>
<text text-anchor="middle" x="904" y="-1419.5" font-family="Times,serif" font-size="10.00">parse_app_layer(MACPayload)</text>
</g>
<!-- LoRa&#45;Gateway_protocol_layers_application_layer_py&#45;&gt;LoRa&#45;Gateway_protocol_layers_application_layer_py_parse_app_layer -->
<g id="edge17" class="edge">
<title>LoRa&#45;Gateway_protocol_layers_application_layer_py&#45;&gt;LoRa&#45;Gateway_protocol_layers_application_layer_py_parse_app_layer</title>
<path fill="none" stroke="black" d="M463.75,-1422C578.71,-1422 716.66,-1422 806.9,-1422"/>
<polygon fill="black" stroke="black" points="807.12,-1425.5 817.12,-1422 807.12,-1418.5 807.12,-1425.5"/>
</g>
<!-- LoRa&#45;Gateway_protocol_layers_mac_layer_py -->
<g id="node40" class="node">
<title>LoRa&#45;Gateway_protocol_layers_mac_layer_py</title>
<polygon fill="lightgrey" stroke="black" points="435.5,-1494 432.5,-1498 411.5,-1498 408.5,-1494 79.5,-1494 79.5,-1458 435.5,-1458 435.5,-1494"/>
<text text-anchor="start" x="87.5" y="-1473.3" font-family="Times,serif" font-weight="bold" font-size="14.00">LoRa&#45;Gateway/protocol_layers/mac_layer.py</text>
</g>
<!-- LoRa&#45;Gateway_protocol_layers_mac_layer_py_parse_mac_layer -->
<g id="node41" class="node">
<title>LoRa&#45;Gateway_protocol_layers_mac_layer_py_parse_mac_layer</title>
<polygon fill="none" stroke="black" points="985.5,-1494 816.5,-1494 816.5,-1458 991.5,-1458 991.5,-1488 985.5,-1494"/>
<polyline fill="none" stroke="black" points="985.5,-1494 985.5,-1488 "/>
<polyline fill="none" stroke="black" points="991.5,-1488 985.5,-1488 "/>
<text text-anchor="middle" x="904" y="-1473.5" font-family="Times,serif" font-size="10.00">parse_mac_layer(phy_payload)</text>
</g>
<!-- LoRa&#45;Gateway_protocol_layers_mac_layer_py&#45;&gt;LoRa&#45;Gateway_protocol_layers_mac_layer_py_parse_mac_layer -->
<g id="edge18" class="edge">
<title>LoRa&#45;Gateway_protocol_layers_mac_layer_py&#45;&gt;LoRa&#45;Gateway_protocol_layers_mac_layer_py_parse_mac_layer</title>
<path fill="none" stroke="black" d="M435.89,-1476C555.37,-1476 708.41,-1476 806.11,-1476"/>
<polygon fill="black" stroke="black" points="806.27,-1479.5 816.27,-1476 806.27,-1472.5 806.27,-1479.5"/>
</g>
<!-- LoRa&#45;Gateway_protocol_layers_phy_layer_py -->
<g id="node42" class="node">
<title>LoRa&#45;Gateway_protocol_layers_phy_layer_py</title>
<polygon fill="lightgrey" stroke="black" points="434,-1548 431,-1552 410,-1552 407,-1548 81,-1548 81,-1512 434,-1512 434,-1548"/>
<text text-anchor="start" x="89" y="-1527.3" font-family="Times,serif" font-weight="bold" font-size="14.00">LoRa&#45;Gateway/protocol_layers/phy_layer.py</text>
</g>
<!-- LoRa&#45;Gateway_protocol_layers_phy_layer_py_parse_phy_layer -->
<g id="node43" class="node">
<title>LoRa&#45;Gateway_protocol_layers_phy_layer_py_parse_phy_layer</title>
<polygon fill="none" stroke="black" points="981.5,-1548 820.5,-1548 820.5,-1512 987.5,-1512 987.5,-1542 981.5,-1548"/>
<polyline fill="none" stroke="black" points="981.5,-1548 981.5,-1542 "/>
<polyline fill="none" stroke="black" points="987.5,-1542 981.5,-1542 "/>
<text text-anchor="middle" x="904" y="-1527.5" font-family="Times,serif" font-size="10.00">parse_phy_layer(LoRaPacket)</text>
</g>
<!-- LoRa&#45;Gateway_protocol_layers_phy_layer_py&#45;&gt;LoRa&#45;Gateway_protocol_layers_phy_layer_py_parse_phy_layer -->
<g id="edge19" class="edge">
<title>LoRa&#45;Gateway_protocol_layers_phy_layer_py&#45;&gt;LoRa&#45;Gateway_protocol_layers_phy_layer_py_parse_phy_layer</title>
<path fill="none" stroke="black" d="M434.19,-1530C555.5,-1530 712.03,-1530 809.98,-1530"/>
<polygon fill="black" stroke="black" points="810.16,-1533.5 820.16,-1530 810.16,-1526.5 810.16,-1533.5"/>
</g>
<!-- LoRa&#45;Gateway_protocol_layers___init___py -->
<g id="node44" class="node">
<title>LoRa&#45;Gateway_protocol_layers___init___py</title>
<polygon fill="lightgrey" stroke="black" points="425,-1602 422,-1606 401,-1606 398,-1602 90,-1602 90,-1566 425,-1566 425,-1602"/>
<text text-anchor="start" x="98" y="-1581.3" font-family="Times,serif" font-weight="bold" font-size="14.00">LoRa&#45;Gateway/protocol_layers/__init__.py</text>
</g>
</g>
</svg>
