<?xml version="1.0" encoding="UTF-8" standalone="no"?>
<!DOCTYPE svg PUBLIC "-//W3C//DTD SVG 1.1//EN"
 "http://www.w3.org/Graphics/SVG/1.1/DTD/svg11.dtd">
<!-- Generated by graphviz version 2.43.0 (0)
 -->
<!-- Title: %3 Pages: 1 -->
<svg width="403pt" height="510pt"
 viewBox="0.00 0.00 403.00 510.00" xmlns="http://www.w3.org/2000/svg" xmlns:xlink="http://www.w3.org/1999/xlink">
<g id="graph0" class="graph" transform="scale(1 1) rotate(0) translate(4 506)">
<title>%3</title>
<polygon fill="white" stroke="transparent" points="-4,4 -4,-506 399,-506 399,4 -4,4"/>
<!-- parse_phy_layer -->
<g id="node1" class="node">
<title>parse_phy_layer</title>
<polygon fill="lightyellow" stroke="black" points="307,-502 175,-502 175,-464 307,-464 307,-502"/>
<text text-anchor="middle" x="241" y="-486.8" font-family="Times,serif" font-size="14.00">parse_phy_layer</text>
<text text-anchor="middle" x="241" y="-471.8" font-family="Times,serif" font-size="14.00">[phy_layer.py]</text>
</g>
<!-- parse_mac_layer -->
<g id="node2" class="node">
<title>parse_mac_layer</title>
<polygon fill="lightyellow" stroke="black" points="308.5,-427 173.5,-427 173.5,-389 308.5,-389 308.5,-427"/>
<text text-anchor="middle" x="241" y="-411.8" font-family="Times,serif" font-size="14.00">parse_mac_layer</text>
<text text-anchor="middle" x="241" y="-396.8" font-family="Times,serif" font-size="14.00">[mac_layer.py]</text>
</g>
<!-- parse_phy_layer&#45;&gt;parse_mac_layer -->
<g id="edge1" class="edge">
<title>parse_phy_layer&#45;&gt;parse_mac_layer</title>
<path fill="none" stroke="black" d="M241,-463.96C241,-455.88 241,-446.18 241,-437.18"/>
<polygon fill="black" stroke="black" points="244.5,-437.09 241,-427.09 237.5,-437.09 244.5,-437.09"/>
</g>
<!-- parse_app_layer -->
<g id="node3" class="node">
<title>parse_app_layer</title>
<polygon fill="lightyellow" stroke="black" points="325.5,-352 156.5,-352 156.5,-314 325.5,-314 325.5,-352"/>
<text text-anchor="middle" x="241" y="-336.8" font-family="Times,serif" font-size="14.00">parse_app_layer</text>
<text text-anchor="middle" x="241" y="-321.8" font-family="Times,serif" font-size="14.00">[application_layer.py]</text>
</g>
<!-- parse_mac_layer&#45;&gt;parse_app_layer -->
<g id="edge2" class="edge">
<title>parse_mac_layer&#45;&gt;parse_app_layer</title>
<path fill="none" stroke="black" d="M241,-388.96C241,-380.88 241,-371.18 241,-362.18"/>
<polygon fill="black" stroke="black" points="244.5,-362.09 241,-352.09 237.5,-362.09 244.5,-362.09"/>
</g>
<!-- parse_full_lorawan_frame -->
<g id="node4" class="node">
<title>parse_full_lorawan_frame</title>
<polygon fill="lightblue" stroke="black" points="340.5,-277 141.5,-277 141.5,-239 340.5,-239 340.5,-277"/>
<text text-anchor="middle" x="241" y="-261.8" font-family="Times,serif" font-size="14.00">parse_full_lorawan_frame</text>
<text text-anchor="middle" x="241" y="-246.8" font-family="Times,serif" font-size="14.00">[frame_parser.py]</text>
</g>
<!-- parse_app_layer&#45;&gt;parse_full_lorawan_frame -->
<g id="edge3" class="edge">
<title>parse_app_layer&#45;&gt;parse_full_lorawan_frame</title>
<path fill="none" stroke="black" d="M241,-313.96C241,-305.88 241,-296.18 241,-287.18"/>
<polygon fill="black" stroke="black" points="244.5,-287.09 241,-277.09 237.5,-287.09 244.5,-287.09"/>
</g>
<!-- process_mac_commands -->
<g id="node5" class="node">
<title>process_mac_commands</title>
<polygon fill="lightgreen" stroke="black" points="340.5,-202 141.5,-202 141.5,-164 340.5,-164 340.5,-202"/>
<text text-anchor="middle" x="241" y="-186.8" font-family="Times,serif" font-size="14.00">process_mac_commands</text>
<text text-anchor="middle" x="241" y="-171.8" font-family="Times,serif" font-size="14.00">[mac_cmd_processing.py]</text>
</g>
<!-- parse_full_lorawan_frame&#45;&gt;process_mac_commands -->
<g id="edge4" class="edge">
<title>parse_full_lorawan_frame&#45;&gt;process_mac_commands</title>
<path fill="none" stroke="black" d="M241,-238.96C241,-230.88 241,-221.18 241,-212.18"/>
<polygon fill="black" stroke="black" points="244.5,-212.09 241,-202.09 237.5,-212.09 244.5,-212.09"/>
</g>
<!-- extract_mac_commands -->
<g id="node6" class="node">
<title>extract_mac_commands</title>
<polygon fill="lightpink" stroke="black" points="211,-113 17,-113 17,-75 211,-75 211,-113"/>
<text text-anchor="middle" x="114" y="-97.8" font-family="Times,serif" font-size="14.00">extract_mac_commands</text>
<text text-anchor="middle" x="114" y="-82.8" font-family="Times,serif" font-size="14.00">[mac_cmd_extraction.py]</text>
</g>
<!-- process_mac_commands&#45;&gt;extract_mac_commands -->
<g id="edge6" class="edge">
<title>process_mac_commands&#45;&gt;extract_mac_commands</title>
<path fill="none" stroke="black" d="M180.54,-163.83C169.76,-159.03 159.08,-153.14 150,-146 141.65,-139.44 134.42,-130.43 128.68,-121.81"/>
<polygon fill="black" stroke="black" points="131.5,-119.72 123.24,-113.08 125.56,-123.42 131.5,-119.72"/>
<text text-anchor="middle" x="209" y="-134.8" font-family="Times,serif" font-size="14.00">if FOpts present</text>
</g>
<!-- decrypt_frm_payload -->
<g id="node8" class="node">
<title>decrypt_frm_payload</title>
<polygon fill="lightcoral" stroke="black" points="395,-113 229,-113 229,-75 395,-75 395,-113"/>
<text text-anchor="middle" x="312" y="-97.8" font-family="Times,serif" font-size="14.00">decrypt_frm_payload</text>
<text text-anchor="middle" x="312" y="-82.8" font-family="Times,serif" font-size="14.00">[security.py]</text>
</g>
<!-- process_mac_commands&#45;&gt;decrypt_frm_payload -->
<g id="edge5" class="edge">
<title>process_mac_commands&#45;&gt;decrypt_frm_payload</title>
<path fill="none" stroke="black" d="M255.71,-163.97C265.9,-151.49 279.61,-134.69 290.95,-120.79"/>
<polygon fill="black" stroke="black" points="293.7,-122.96 297.31,-113 288.27,-118.54 293.7,-122.96"/>
<text text-anchor="middle" x="322.5" y="-134.8" font-family="Times,serif" font-size="14.00">if FPort = 0</text>
</g>
<!-- handle_mac_command_by_cid -->
<g id="node7" class="node">
<title>handle_mac_command_by_cid</title>
<polygon fill="lightpink" stroke="black" points="228,-38 0,-38 0,0 228,0 228,-38"/>
<text text-anchor="middle" x="114" y="-22.8" font-family="Times,serif" font-size="14.00">handle_mac_command_by_cid</text>
<text text-anchor="middle" x="114" y="-7.8" font-family="Times,serif" font-size="14.00">[mac_cmd_handler.py]</text>
</g>
<!-- extract_mac_commands&#45;&gt;handle_mac_command_by_cid -->
<g id="edge7" class="edge">
<title>extract_mac_commands&#45;&gt;handle_mac_command_by_cid</title>
<path fill="none" stroke="black" d="M114,-74.96C114,-66.88 114,-57.18 114,-48.18"/>
<polygon fill="black" stroke="black" points="117.5,-48.09 114,-38.09 110.5,-48.09 117.5,-48.09"/>
</g>
</g>
</svg>
